<svg width="44" height="50" viewBox="0 0 44 50" fill="none" xmlns="http://www.w3.org/2000/svg">
<path d="M27.127 50H2.22461C1.01299 50 0.0273438 49.0143 0.0273438 47.8027V11.1523C0.0273438 9.94082 1.01299 8.95508 2.22461 8.95508H6.43457C6.83906 8.95508 7.16699 9.28291 7.16699 9.6875C7.16699 10.0921 6.83906 10.4199 6.43457 10.4199H2.22461C1.8207 10.4199 1.49219 10.7484 1.49219 11.1523V47.8027C1.49219 48.2066 1.8207 48.5352 2.22461 48.5352H27.127C27.5309 48.5352 27.8594 48.2066 27.8594 47.8027V30.7617H11.0137C9.80205 30.7617 8.81641 29.776 8.81641 28.5645V2.19727C8.81641 0.985742 9.80205 0 11.0137 0H32.9863C34.1979 0 35.1836 0.985742 35.1836 2.19727V9.52148C35.1836 9.92607 34.8557 10.2539 34.4512 10.2539C34.0467 10.2539 33.7188 9.92607 33.7188 9.52148V2.19727C33.7188 1.79336 33.3902 1.46484 32.9863 1.46484H11.0137C10.6098 1.46484 10.2812 1.79336 10.2812 2.19727V28.5645C10.2812 28.9684 10.6098 29.2969 11.0137 29.2969H32.9863C33.3902 29.2969 33.7188 28.9684 33.7188 28.5645V12.4512C33.7188 12.0466 34.0467 11.7188 34.4512 11.7188H38.8457C39.2502 11.7188 39.5781 12.0466 39.5781 12.4512C39.5781 12.8558 39.2502 13.1836 38.8457 13.1836H35.1836V16.1133H38.8457C39.2502 16.1133 39.5781 16.4411 39.5781 16.8457C39.5781 17.2503 39.2502 17.5781 38.8457 17.5781H35.1836V20.5078H38.8457C39.2502 20.5078 39.5781 20.8356 39.5781 21.2402C39.5781 21.6448 39.2502 21.9727 38.8457 21.9727H35.1836V24.9023H38.8457C39.2502 24.9023 39.5781 25.2302 39.5781 25.6348C39.5781 26.0394 39.2502 26.3672 38.8457 26.3672H35.1836V28.5645C35.1836 28.8211 35.1394 29.0677 35.0581 29.2969H38.8457C39.2502 29.2969 39.5781 29.6247 39.5781 30.0293C39.5781 30.4339 39.2502 30.7617 38.8457 30.7617H29.3242V33.6914H38.8457C39.2502 33.6914 39.5781 34.0192 39.5781 34.4238C39.5781 34.8284 39.2502 35.1562 38.8457 35.1562H29.3242V39.7461H41.7754C42.1793 39.7461 42.5078 39.4176 42.5078 39.0137V6.75781C42.5078 6.35391 42.1793 6.02539 41.7754 6.02539H37.3809C36.9764 6.02539 36.6484 5.69756 36.6484 5.29297C36.6484 4.88838 36.9764 4.56055 37.3809 4.56055H41.7754C42.987 4.56055 43.9727 5.54629 43.9727 6.75781V39.0137C43.9727 40.2252 42.987 41.2109 41.7754 41.2109H29.3242V45.6055H37.3809C37.7848 45.6055 38.1133 45.277 38.1133 44.873V43.4082C38.1133 43.0036 38.4412 42.6758 38.8457 42.6758C39.2502 42.6758 39.5781 43.0036 39.5781 43.4082V44.873C39.5781 46.0846 38.5925 47.0703 37.3809 47.0703H29.3242V47.8027C29.3242 49.0143 28.3386 50 27.127 50ZM31.5215 27.832H12.4785C12.074 27.832 11.7461 27.5042 11.7461 27.0996V24.5553C11.7461 20.7917 14.2344 19.9306 16.0513 19.3018C17.5508 18.7828 18.4022 18.4332 18.5523 17.3054C16.9359 16.2011 15.8729 14.3438 15.8729 12.2428V9.22266C15.8729 5.84424 18.6216 3.0957 22 3.0957C25.3784 3.0957 28.1271 5.84434 28.1271 9.22266V12.2428C28.1271 14.3438 27.0642 16.2011 25.4477 17.3054C25.5978 18.4333 26.4492 18.7828 27.9487 19.3018C29.7656 19.9306 32.2539 20.7917 32.2539 24.5553V27.0996C32.2539 27.5042 31.926 27.832 31.5215 27.832ZM13.2109 26.3672H30.7891V24.5553C30.7891 21.8349 29.2508 21.3024 27.4696 20.686C26.1542 20.2309 24.5684 19.6818 24.0972 18C23.4426 18.2393 22.7363 18.3697 22 18.3697C21.2637 18.3697 20.5574 18.2393 19.9028 18C19.4316 19.6818 17.8458 20.2309 16.5304 20.686C14.7492 21.3025 13.2109 21.8349 13.2109 24.5553V26.3672ZM22 4.56055C19.4293 4.56055 17.3378 6.65195 17.3378 9.22266V12.2428C17.3378 14.8135 19.4293 16.9049 22 16.9049C24.5707 16.9049 26.6622 14.8135 26.6622 12.2428V9.22266C26.6622 6.65195 24.5707 4.56055 22 4.56055Z" fill="#84C551"/>
</svg>
