<svg width="16" height="20" viewBox="0 0 16 20" fill="none" xmlns="http://www.w3.org/2000/svg">
<path d="M0.875 7.65625C0.875 3.72911 4.0717 0.5 7.99219 0.5C11.9127 0.5 15.1094 3.72911 15.1094 7.65625C15.1094 9.20898 14.6195 10.6813 13.6922 11.9188L7.99219 19.1896L2.299 11.9273C1.36467 10.681 0.875 9.20864 0.875 7.65625ZM3.39063 7.65625C3.39063 10.1937 5.45469 12.2578 7.99219 12.2578C10.5297 12.2578 12.5938 10.1937 12.5938 7.65625C12.5938 5.11875 10.5297 3.05469 7.99219 3.05469C5.45469 3.05469 3.39063 5.11875 3.39063 7.65625Z" stroke="#8C3213"/>
<path d="M5.5625 7.65625C5.5625 6.31716 6.6531 5.22656 7.99219 5.22656C9.33128 5.22656 10.4219 6.31716 10.4219 7.65625C10.4219 8.99534 9.33128 10.0859 7.99219 10.0859C6.6531 10.0859 5.5625 8.99534 5.5625 7.65625Z" stroke="#8C3213"/>
</svg>
