<svg width="40" height="50" viewBox="0 0 40 50" fill="none" xmlns="http://www.w3.org/2000/svg">
<path d="M34.6425 6.55093H30.1191V4.52731C30.1191 3.87259 29.4049 3.57502 28.7502 3.57502H25.2386C24.4053 1.19424 22.3221 0.00385378 19.9414 0.00385378C17.5868 -0.0846649 15.4451 1.35909 14.6441 3.57502H11.192C10.5373 3.57502 9.88259 3.87259 9.88259 4.52731V6.55093H5.35902C2.6784 6.57952 0.485374 8.69417 0.359375 11.3719V45.4765C0.359375 48.0953 2.74015 49.9999 5.35902 49.9999H34.6425C37.2614 49.9999 39.6422 48.0953 39.6422 45.4765V11.3721C39.5162 8.69417 37.3231 6.57952 34.6425 6.55093ZM12.2632 5.95579H15.5368C16.1083 5.88607 16.5673 5.45134 16.6678 4.88446C17.0202 3.34945 18.3669 2.24758 19.9414 2.20611C21.5012 2.25339 22.8276 3.35868 23.1554 4.88446C23.2621 5.47093 23.7514 5.91125 24.3458 5.95579H27.7384V10.7173H12.2632V5.95579ZM37.2614 45.4766C37.2614 46.786 35.9519 47.6193 34.6425 47.6193H5.35902C4.04959 47.6193 2.74015 46.786 2.74015 45.4766V11.3721C2.86159 10.0091 3.9908 8.95677 5.35902 8.93182H9.88247V11.9673C9.94536 12.6342 10.523 13.1331 11.1919 13.0982H28.75C29.4313 13.1355 30.027 12.6435 30.1189 11.9673V8.93171H34.6424C36.0105 8.95677 37.1398 10.009 37.2613 11.3719V45.4766H37.2614Z" fill="#84C551"/>
<path d="M15.4195 26.6089C14.973 26.1383 14.2318 26.1117 13.7529 26.5494L9.9436 30.1801L8.3366 28.5135C7.89013 28.0429 7.14894 28.0164 6.67001 28.454C6.20896 28.937 6.20896 29.697 6.67001 30.1801L9.11025 32.6799C9.32147 32.9164 9.62655 33.0472 9.94349 33.037C10.2575 33.0326 10.557 32.9042 10.7767 32.6799L15.4192 28.2755C15.8795 27.8533 15.9102 27.1379 15.4879 26.6777C15.4663 26.6537 15.4434 26.6308 15.4195 26.6089Z" fill="#84C551"/>
<path d="M32.5009 29.1682H18.8115C18.154 29.1682 17.6211 29.7011 17.6211 30.3586C17.6211 31.016 18.154 31.549 18.8115 31.549H32.5009C33.1583 31.549 33.6913 31.016 33.6913 30.3586C33.6913 29.7011 33.1583 29.1682 32.5009 29.1682Z" fill="#84C551"/>
<path d="M15.4195 17.086C14.973 16.6153 14.2318 16.5888 13.7529 17.0265L9.9436 20.6571L8.3366 18.9905C7.89013 18.5199 7.14894 18.4934 6.67001 18.9311C6.20896 19.4141 6.20896 20.1741 6.67001 20.6571L9.11025 23.157C9.32147 23.3935 9.62655 23.5243 9.94349 23.5141C10.2575 23.5097 10.557 23.3813 10.7767 23.157L15.4192 18.7526C15.8795 18.3304 15.9102 17.6149 15.4879 17.1548C15.4663 17.1307 15.4434 17.1078 15.4195 17.086Z" fill="#84C551"/>
<path d="M32.5009 19.6453H18.8115C18.154 19.6453 17.6211 20.1782 17.6211 20.8356C17.6211 21.4931 18.154 22.026 18.8115 22.026H32.5009C33.1583 22.026 33.6913 21.4931 33.6913 20.8356C33.6913 20.1782 33.1583 19.6453 32.5009 19.6453Z" fill="#84C551"/>
<path d="M15.4195 36.1318C14.973 35.6612 14.2318 35.6348 13.7529 36.0723L9.9436 39.703L8.3366 38.0364C7.89013 37.5658 7.14894 37.5393 6.67001 37.9769C6.20896 38.46 6.20896 39.2199 6.67001 39.703L9.11025 42.2028C9.32147 42.4393 9.62655 42.5701 9.94349 42.56C10.2575 42.5555 10.557 42.4271 10.7767 42.2028L15.4192 37.7984C15.8795 37.3762 15.9102 36.6608 15.4879 36.2006C15.4663 36.1767 15.4434 36.1538 15.4195 36.1318Z" fill="#84C551"/>
<path d="M32.5009 38.6914H18.8115C18.154 38.6914 17.6211 39.2244 17.6211 39.8818C17.6211 40.5393 18.154 41.0723 18.8115 41.0723H32.5009C33.1583 41.0723 33.6913 40.5393 33.6913 39.8818C33.6913 39.2244 33.1583 38.6914 32.5009 38.6914Z" fill="#84C551"/>
</svg>
