<svg width="32" height="44" viewBox="0 0 32 44" fill="none" xmlns="http://www.w3.org/2000/svg">
<path d="M26.9375 15.75H8.1875V10.6094C8.1875 8.65755 8.96286 6.78566 10.343 5.40551C11.7232 4.02536 13.595 3.25 15.5469 3.25H16.4531C18.405 3.25 20.2768 4.02536 21.657 5.40551C23.0371 6.78566 23.8125 8.65755 23.8125 10.6094C23.8125 11.0238 23.9771 11.4212 24.2701 11.7142C24.5632 12.0073 24.9606 12.1719 25.375 12.1719C25.7894 12.1719 26.1868 12.0073 26.4799 11.7142C26.7729 11.4212 26.9375 11.0238 26.9375 10.6094C26.9334 7.83002 25.8274 5.16567 23.8621 3.20037C21.8968 1.23506 19.2325 0.129133 16.4531 0.125H15.5469C12.7675 0.129133 10.1032 1.23506 8.13787 3.20037C6.17256 5.16567 5.06663 7.83002 5.0625 10.6094V15.75C3.8193 15.75 2.62701 16.2439 1.74794 17.1229C0.86886 18.002 0.375 19.1943 0.375 20.4375V34.9688C0.379131 37.3296 1.31879 39.5925 2.98814 41.2619C4.65749 42.9312 6.92043 43.8709 9.28125 43.875H22.7187C25.0796 43.8709 27.3425 42.9312 29.0119 41.2619C30.6812 39.5925 31.6209 37.3296 31.625 34.9688V20.4375C31.625 19.1943 31.1311 18.002 30.2521 17.1229C29.373 16.2439 28.1807 15.75 26.9375 15.75ZM28.5 34.9688C28.5 36.502 27.8909 37.9725 26.8067 39.0567C25.7225 40.1409 24.252 40.75 22.7187 40.75H9.28125C7.74797 40.75 6.27748 40.1409 5.19329 39.0567C4.10909 37.9725 3.5 36.502 3.5 34.9688V20.4375C3.5 20.0231 3.66462 19.6257 3.95765 19.3326C4.25067 19.0396 4.6481 18.875 5.0625 18.875H26.9375C27.3519 18.875 27.7493 19.0396 28.0424 19.3326C28.3354 19.6257 28.5 20.0231 28.5 20.4375V34.9688ZM17.5625 29.375V34.5C17.5625 34.9144 17.3979 35.3118 17.1049 35.6049C16.8118 35.8979 16.4144 36.0625 16 36.0625C15.5856 36.0625 15.1882 35.8979 14.8951 35.6049C14.6021 35.3118 14.4375 34.9144 14.4375 34.5V29.375C13.8417 29.031 13.3761 28.5001 13.1129 27.8646C12.8496 27.229 12.8034 26.5243 12.9815 25.8599C13.1595 25.1954 13.5519 24.6082 14.0976 24.1894C14.6434 23.7707 15.3121 23.5437 16 23.5437C16.6879 23.5437 17.3566 23.7707 17.9024 24.1894C18.4481 24.6082 18.8405 25.1954 19.0185 25.8599C19.1966 26.5243 19.1504 27.229 18.8871 27.8646C18.6239 28.5001 18.1583 29.031 17.5625 29.375Z" fill="#84C551"/>
</svg>
